<?xml version="1.0" encoding="UTF-8" standalone="no"?>
<svg
   id="Contain-Amazon-Icon"
   data-name="Contain-Amazon-Icon"
   viewBox="0 0 15872 15870.723"
   version="1.1"
   sodipodi:docname="icon.svg"
   width="15872"
   height="15870.723"
   xmlns:inkscape="http://www.inkscape.org/namespaces/inkscape"
   xmlns:sodipodi="http://sodipodi.sourceforge.net/DTD/sodipodi-0.dtd"
   xmlns="http://www.w3.org/2000/svg"
   xmlns:svg="http://www.w3.org/2000/svg">
  <sodipodi:namedview
     id="namedview10"
     pagecolor="#ffffff"
     bordercolor="#000000"
     borderopacity="0.25"
     inkscape:showpageshadow="2"
     inkscape:pageopacity="0.0"
     inkscape:pagecheckerboard="0"
     inkscape:deskcolor="#d1d1d1">
    <inkscape:page
       x="0"
       y="0"
       width="15872"
       height="15870.723"
       id="page2"
       margin="0"
       bleed="0" />
  </sodipodi:namedview>
  <defs
     id="defs1">
    <style
       id="style1">
      .cls-1{
        fill:#fff;
      }
      .cls-2{
        fill:#f90;
        fill-rule:evenodd;
      }
    </style>
  </defs>
  <title
     id="title1">Contain-Amazon-Icon</title>
  <path
     d="m -143,-254.567 v 0 a 18,18 0 0 0 -5,-0.7 h -88 a 18,18 0 0 0 -18,17.99 v 88 a 18,18 0 0 0 18,18 h 30.4 v 0 h 1.73 v 0 H -148 a 18,18 0 0 0 18,-18 v -88 a 18,18 0 0 0 -13,-17.29 z"
     id="path1" />
  <path
     class="cls-1"
     d="m -198,-205.277 v -18 l -6,-6 -6,6 v 25.21 a 101.45,101.45 0 0 0 12,1.42 z"
     id="path2" />
  <path
     class="cls-1"
     d="m -210,-157.277 h 12 v -20 q -6,-0.3 -12,-1.2 z"
     id="path3" />
  <path
     class="cls-1"
     d="m -234,-157.277 h 12 v -23.61 a 123.92,123.92 0 0 1 -12,-3.72 z"
     id="path4" />
  <path
     class="cls-1"
     d="m -222,-200.957 v -22.32 l -6,-6 -6,6 v 17.87 l 2.49,1 c 3.13,1.33 6.31,2.47 9.51,3.45 z"
     id="path5" />
  <path
     class="cls-1"
     d="m -150,-205.407 v -17.87 l -6,-6 -6,6 v 22.32 c 3.2,-1 6.38,-2.12 9.51,-3.42 z"
     id="path6" />
  <path
     class="cls-1"
     d="m -162,-157.277 h 12 v -27.33 a 123.92,123.92 0 0 1 -12,3.72 z"
     id="path7" />
  <path
     class="cls-1"
     d="m -186,-157.277 h 12 v -21.19 q -6,0.9 -12,1.2 z"
     id="path8" />
  <path
     class="cls-1"
     d="m -174,-205.277 v -18 l -6,-6 -6,6 v 26.63 a 101.45,101.45 0 0 0 12,-1.42 z"
     id="path9" />
  <path
     class="cls-2"
     d="m -150.57,-199.757 a 107.52,107.52 0 0 1 -82.86,0 l -0.57,-0.24 v 10.06 a 117.26,117.26 0 0 0 42,7.82 117.26,117.26 0 0 0 42,-7.82 v -10.06 z"
     id="path10" />
  <g
     id="g10"
     transform="matrix(1.6,0,0,1.59,-308.52242,-256.96825)">
    <rect
       style="fill:#ff9900;fill-opacity:1"
       id="rect10"
       width="5.5854545"
       height="15.515152"
       x="95.883636"
       y="6.050909" />
    <rect
       style="fill:#ff9900;fill-opacity:1"
       id="rect10-4"
       width="5.5854545"
       height="15.515152"
       x="-16.204893"
       y="91.15757"
       transform="rotate(-90)" />
  </g>
</svg>
